<?xml version="1.0" standalone="no"?>
<!DOCTYPE svg PUBLIC "-//W3C//DTD SVG 20010904//EN"
 "http://www.w3.org/TR/2001/REC-SVG-20010904/DTD/svg10.dtd">
<svg version="1.0" xmlns="http://www.w3.org/2000/svg"
 width="200.000000pt" height="24.000000pt" viewBox="0 0 200.000000 24.000000"
 preserveAspectRatio="xMidYMid meet">
<g transform="translate(0.000000,24.000000) scale(0.100000,-0.100000)"
fill="#000000" stroke="none">

<path d="M73 148 c-5 -7 -25 -39 -43 -71 -25 -45 -30 -61 -21 -70 10 -9 17 -6
33 16 16 21 28 27 59 27 32 0 39 3 39 20 0 16 -7 20 -30 20 -30 0 -30 0 -14
25 22 34 1 64 -23 33z"/>
<path d="M116 231 c-6 -9 95 -194 120 -221 10 -10 17 -11 25 -3 8 8 -2 36 -42
105 -70 123 -88 144 -103 119z"/>


<path d="M374 231 c-2 -2 -4 -10 -4 -18 0 -11 24 -13 118 -11 91 2 117 6 117
17 0 11 -24 14 -113 15 -63 0 -116 -1 -118 -3z"/>
<path d="M474 147 c-3 -8 -4 -43 -2 -78 2 -49 7 -64 18 -64 12 0 15 15 15 74
0 51 -4 76 -12 78 -7 3 -15 -2 -19 -10z"/>

<path d="M754 212 c-46 -37 -57 -101 -27 -152 21 -37 59 -58 75 -42 8 8 3 19
-20 41 -43 39 -43 82 -1 122 44 41 20 69 -27 31z"/>
<path d="M850 216 c0 -8 14 -28 30 -44 38 -38 38 -66 0 -104 -50 -50 -31 -81
23 -38 34 27 48 79 36 125 -14 50 -89 102 -89 61z"/>

<path d="M1072 121 c-19 -12 -12 -116 8 -116 11 0 16 14 18 54 3 57 -5 75 -26
62z"/>
<path d="M1064 229 c-4 -6 24 -42 65 -82 l71 -72 65 65 c36 35 65 70 65 77 0
31 -27 21 -79 -31 l-57 -56 -54 55 c-57 58 -64 62 -76 44z"/>
<path d="M1301 116 c-18 -21 -10 -111 9 -111 11 0 16 14 18 54 3 58 -7 81 -27
57z"/>

<path d="M1453 224 c-6 -17 33 -64 53 -64 26 0 25 23 -2 51 -31 33 -42 36 -51
13z"/>
<path d="M1604 186 l-55 -53 3 -64 c2 -49 7 -64 18 -64 11 0 15 13 16 53 1 50
4 56 54 107 47 47 58 75 29 75 -5 0 -34 -24 -65 -54z"/>

<path d="M1937 223 c-12 -11 -8 -20 19 -38 20 -13 29 -14 38 -5 8 9 5 16 -13
31 -25 20 -34 23 -44 12z"/>
<path d="M1828 201 c-29 -26 -33 -36 -33 -80 0 -41 5 -55 29 -80 29 -31 66
-42 66 -20 0 6 -13 24 -30 39 -41 38 -41 82 1 121 17 16 28 33 24 39 -10 16
-22 12 -57 -19z"/>
<path d="M1951 51 c-24 -18 -22 -41 3 -41 18 0 49 37 41 49 -9 15 -16 14 -44
-8z"/>

</g>
</svg>