<?xml version="1.0" encoding="utf-8"?>
<!-- Generator: Adobe Illustrator 22.0.1, SVG Export Plug-In . SVG Version: 6.00 Build 0)  -->
<svg version="1.2" baseProfile="tiny" id="Calque_1"
	 xmlns="http://www.w3.org/2000/svg" xmlns:xlink="http://www.w3.org/1999/xlink" x="0px" y="0px" viewBox="0 0 1300 894"
	 xml:space="preserve">
<g>
	<g>
		<g>
			<path fill="#0D181C" d="M1291.5,427.4c0,0,8.9-15.7,8.4-40.9c0,0-41.5,3.3-99.8-6.9c0,0-17.8-53-66.9-63.6
				c-42.5-9.2-95.7-5.8-149.1,55.6c-54.8,62.9-147.4,51.7-188.9,22.9c0,0-34.2-55.6-68.4-49.7c-40.3,6.8-172.3,10.1-172.3,10.1v0.1
				L-0.2,408.9l556.4,23.9c0,0,165.5-1.1,174.2-3.1c8.8-2,60.1-36.4,102.9,10c24,26.1,34.7-16.1,95.4-9.2
				c59.1,6.7,85.4,54.2,91.8,68.7c3.7,8.2,121.7,23.5,173.3-85.3C1195.3,410.6,1225.8,398.9,1291.5,427.4z M1098.3,478.2
				c-52.8,12.7-97.7-12.4-106.8-50.3c-9.2-37.9,16.8-66.3,68.5-88.8c45.8-19.9,103.8,8.7,112.3,46.7
				C1179.5,418.8,1141.9,467.7,1098.3,478.2z"/>
		</g>
	</g>
	<g>
		<g>
			<path fill="#0D181C" d="M893,183.1C948.8,149,1006,85,957.5,25.9c-40.5-49.4-126.1-19-160.5,16.3c0,0-41,37.2-37.3,73
				c0,0,39.1,11.8,42.6,98c2.3,56.7-78,122.4-111.4,144.1l-4.2,3.8c7-5.9,27.1-13.3,65.6,2.8c2.6,1.1,40.1-76.7,40.1-76.7
				S811.2,233.1,893,183.1z M899.7,155.4c-58.6,34-92.3-3.1-104.1-27c0,0-23.3-43.1,33-85.2C876.1,7.8,919.2,4.8,945,31.8
				C974.6,62.7,967.5,116.2,899.7,155.4z"/>
		</g>
	</g>
	<g>
		<polygon fill="#0D181C" points="625.9,418.3 172.3,894 778,410.6 700.8,416.6 		"/>
	</g>
	<g>
		<polygon fill="#AD8611" points="692.6,394.2 706.9,400.8 709.5,416.4 720.3,404.8 735.8,407.1 728.2,393.4 735.2,379.3 
			719.8,382.3 708.5,371.3 706.6,386.9 		"/>
	</g>
</g>
</svg>
